<?xml version="1.0"?>
<svg xmlns="http://www.w3.org/2000/svg" xmlns:xlink="http://www.w3.org/1999/xlink" version="1.1" id="Capa_1" x="0px" y="0px" viewBox="0 0 438 438" style="enable-background:new 0 0 438 438;" xml:space="preserve" width="512px" height="512px" class=""><g transform="matrix(1 0 0 1 -50 0)"><g>
	<g>
		<path d="M121,0c18,0,33,15,33,33v372c0,18-15,33-33,33s-32-15-32-33V33C89,15,103,0,121,0z" data-original="#090509" class="active-path" data-old_color="#7B357B" fill="#FDFBFD"/>
		<path d="M317,0c18,0,32,15,32,33v372c0,18-14,33-32,33s-33-15-33-33V33C284,15,299,0,317,0z" data-original="#090509" class="active-path" data-old_color="#7B357B" fill="#FDFBFD"/>
	</g>
</g></g> </svg>
